<?xml version="1.0" encoding="iso-8859-1"?>
<!-- Generator: Adobe Illustrator 19.0.0, SVG Export Plug-In . SVG Version: 6.00 Build 0)  -->
<svg version="1.1" id="Layer_1" xmlns="http://www.w3.org/2000/svg" xmlns:xlink="http://www.w3.org/1999/xlink" x="0px" y="0px"
	 viewBox="0 0 512 512" style="enable-background:new 0 0 512 512;" xml:space="preserve" fill="green">
<g>
	<g>
		<g>
			<path d="M490.667,0H21.333C9.551,0,0,9.551,0,21.333v469.333C0,502.449,9.551,512,21.333,512h469.333
				c11.782,0,21.333-9.551,21.333-21.333V21.333C512,9.551,502.449,0,490.667,0z M469.333,469.333H42.667V42.667h426.667V469.333z"
				/>
			<path d="M217.6,354.133c7.789,10.386,22.972,11.465,32.152,2.285l149.333-149.333c8.331-8.331,8.331-21.839,0-30.17
				s-21.839-8.331-30.17,0l-131.94,131.94L187.733,243.2c-7.069-9.426-20.441-11.336-29.867-4.267
				c-9.426,7.069-11.336,20.441-4.267,29.867L217.6,354.133z"/>
		</g>
	</g>
</g>
<g>
</g>
<g>
</g>
<g>
</g>
<g>
</g>
<g>
</g>
<g>
</g>
<g>
</g>
<g>
</g>
<g>
</g>
<g>
</g>
<g>
</g>
<g>
</g>
<g>
</g>
<g>
</g>
<g>
</g>
</svg>
